<?xml version="1.0" encoding="UTF-8"?>
<svg width="700pt" height="700pt" version="1.1" viewBox="0 0 700 700" xmlns="http://www.w3.org/2000/svg" xmlns:xlink="http://www.w3.org/1999/xlink">
 <defs>
  <symbol id="u" overflow="visible">
   <path d="m3.6719-0.21875c-0.1875 0.09375-0.38672 0.16797-0.59375 0.21875-0.19922 0.050781-0.41406 0.078125-0.64062 0.078125-0.66797 0-1.1992-0.17969-1.5938-0.54688-0.38672-0.375-0.57812-0.88281-0.57812-1.5312 0-0.63281 0.19141-1.1406 0.57812-1.5156 0.39453-0.375 0.92578-0.5625 1.5938-0.5625 0.22656 0 0.44141 0.027344 0.64062 0.078125 0.20703 0.054688 0.40625 0.13281 0.59375 0.23438v0.8125c-0.1875-0.125-0.375-0.21875-0.5625-0.28125s-0.38672-0.09375-0.59375-0.09375c-0.36719 0-0.65234 0.12109-0.85938 0.35938-0.21094 0.24219-0.3125 0.5625-0.3125 0.96875 0 0.41797 0.10156 0.74609 0.3125 0.98438 0.20703 0.23047 0.49219 0.34375 0.85938 0.34375 0.20703 0 0.40625-0.03125 0.59375-0.09375s0.375-0.15625 0.5625-0.28125z"/>
  </symbol>
  <symbol id="d" overflow="visible">
   <path d="m2.6875-2.1875c-0.085938-0.03125-0.16797-0.054688-0.25-0.078125-0.085938-0.019531-0.16797-0.03125-0.25-0.03125-0.25 0-0.44531 0.078125-0.57812 0.23438-0.125 0.15625-0.1875 0.38672-0.1875 0.6875v1.375h-0.96875v-3h0.96875v0.5c0.125-0.19531 0.26562-0.34375 0.42188-0.4375s0.34766-0.14062 0.57812-0.14062c0.03125 0 0.0625 0.007813 0.09375 0.015625 0.039063 0 0.097656 0.007812 0.17188 0.015625z"/>
  </symbol>
  <symbol id="a" overflow="visible">
   <path d="m3.4531-1.5v0.26562h-2.2344c0.019531 0.23047 0.097656 0.40234 0.23438 0.51562 0.14453 0.10547 0.34375 0.15625 0.59375 0.15625 0.19531 0 0.39844-0.023438 0.60938-0.078125 0.21875-0.0625 0.4375-0.15625 0.65625-0.28125v0.73438c-0.23047 0.09375-0.46094 0.16406-0.6875 0.20312-0.21875 0.039062-0.44531 0.0625-0.67188 0.0625-0.54297 0-0.96484-0.13281-1.2656-0.40625-0.30469-0.28125-0.45312-0.67188-0.45312-1.1719 0-0.48828 0.14453-0.875 0.4375-1.1562 0.30078-0.28125 0.71094-0.42188 1.2344-0.42188 0.46875 0 0.84375 0.14844 1.125 0.4375 0.28125 0.28125 0.42188 0.66406 0.42188 1.1406zm-0.98438-0.32812c0-0.17578-0.054688-0.32031-0.15625-0.4375-0.10547-0.11328-0.24609-0.17188-0.42188-0.17188-0.1875 0-0.33984 0.054688-0.45312 0.15625-0.11719 0.10547-0.1875 0.25781-0.21875 0.45312z"/>
  </symbol>
  <symbol id="c" overflow="visible">
   <path d="m1.8125-1.3438c-0.21094 0-0.36719 0.039062-0.46875 0.10938-0.09375 0.0625-0.14062 0.15625-0.14062 0.28125s0.039063 0.22656 0.125 0.29688c0.082031 0.0625 0.19141 0.09375 0.32812 0.09375 0.1875 0 0.33594-0.0625 0.45312-0.1875 0.125-0.13281 0.1875-0.29688 0.1875-0.48438v-0.10938zm1.4531-0.375v1.7188h-0.96875v-0.4375c-0.125 0.17969-0.27344 0.30859-0.4375 0.39062-0.15625 0.082031-0.35156 0.125-0.57812 0.125-0.3125 0-0.57031-0.085938-0.76562-0.26562-0.1875-0.1875-0.28125-0.42578-0.28125-0.71875 0-0.34375 0.11719-0.59766 0.35938-0.76562 0.25-0.16406 0.62891-0.25 1.1406-0.25h0.5625v-0.078125c0-0.14453-0.0625-0.25391-0.1875-0.32812-0.11719-0.070313-0.29688-0.10938-0.54688-0.10938-0.21094 0-0.40234 0.023438-0.57812 0.0625-0.17969 0.042969-0.33984 0.10547-0.48438 0.1875v-0.73438c0.20703-0.050781 0.41016-0.085937 0.60938-0.10938 0.20703-0.03125 0.41406-0.046875 0.625-0.046875 0.53906 0 0.92969 0.10938 1.1719 0.32812 0.23828 0.21094 0.35938 0.55469 0.35938 1.0312z"/>
  </symbol>
  <symbol id="b" overflow="visible">
   <path d="m1.5-3.8438v0.84375h1v0.6875h-1v1.2656c0 0.14844 0.023438 0.24609 0.078125 0.29688 0.0625 0.042969 0.17578 0.0625 0.34375 0.0625h0.48438v0.6875h-0.8125c-0.38672 0-0.65625-0.078125-0.8125-0.23438s-0.23438-0.42578-0.23438-0.8125v-1.2656h-0.46875v-0.6875h0.46875v-0.84375z"/>
  </symbol>
  <symbol id="h" overflow="visible">
   <path d="m2.5-2.5625v-1.6094h0.96875v4.1719h-0.96875v-0.4375c-0.13672 0.17969-0.28125 0.30859-0.4375 0.39062-0.15625 0.082031-0.33984 0.125-0.54688 0.125-0.375 0-0.68359-0.14453-0.92188-0.4375-0.23047-0.28906-0.34375-0.67188-0.34375-1.1406 0-0.45703 0.11328-0.83203 0.34375-1.125 0.23828-0.30078 0.54688-0.45312 0.92188-0.45312 0.20703 0 0.39062 0.042969 0.54688 0.125 0.15625 0.085937 0.30078 0.21484 0.4375 0.39062zm-0.625 1.9375c0.19531 0 0.34766-0.070312 0.45312-0.21875 0.11328-0.14453 0.17188-0.36328 0.17188-0.65625 0-0.28125-0.058594-0.49219-0.17188-0.64062-0.10547-0.15625-0.25781-0.23438-0.45312-0.23438-0.21094 0-0.37109 0.078125-0.48438 0.23438-0.10547 0.14844-0.15625 0.35938-0.15625 0.64062 0 0.29297 0.050781 0.51172 0.15625 0.65625 0.11328 0.14844 0.27344 0.21875 0.48438 0.21875z"/>
  </symbol>
  <symbol id="m" overflow="visible">
   <path d="m2.0625-0.625c0.19531 0 0.34766-0.070312 0.45312-0.21875 0.11328-0.14453 0.17188-0.36328 0.17188-0.65625 0-0.28125-0.058594-0.49219-0.17188-0.64062-0.10547-0.15625-0.25781-0.23438-0.45312-0.23438-0.21094 0-0.37109 0.078125-0.48438 0.23438-0.10547 0.14844-0.15625 0.35938-0.15625 0.64062s0.050781 0.5 0.15625 0.65625c0.11328 0.14844 0.27344 0.21875 0.48438 0.21875zm-0.64062-1.9375c0.13281-0.17578 0.28125-0.30469 0.4375-0.39062 0.15625-0.082031 0.33594-0.125 0.54688-0.125 0.375 0 0.67578 0.15234 0.90625 0.45312 0.23828 0.29297 0.35938 0.66797 0.35938 1.125 0 0.46875-0.12109 0.85156-0.35938 1.1406-0.23047 0.29297-0.53125 0.4375-0.90625 0.4375-0.21094 0-0.39062-0.042969-0.54688-0.125-0.15625-0.082031-0.30469-0.21094-0.4375-0.39062v0.4375h-0.96875v-4.1719h0.96875z"/>
  </symbol>
  <symbol id="l" overflow="visible">
   <path d="m0.0625-3h0.96875l0.79688 2.0312 0.6875-2.0312h0.95312l-1.25 3.2812c-0.125 0.33203-0.27734 0.56641-0.45312 0.70312-0.16797 0.13281-0.38672 0.20312-0.65625 0.20312h-0.5625v-0.64062h0.29688c0.16406 0 0.28516-0.027344 0.35938-0.078125 0.070313-0.042969 0.12891-0.13281 0.17188-0.26562l0.03125-0.09375z"/>
  </symbol>
  <symbol id="k" overflow="visible">
   <path d="m0.5-4h1.3125l0.90625 2.1406 0.92188-2.1406h1.3125v4h-0.96875v-2.9219l-0.92188 2.1562h-0.65625l-0.92188-2.1562v2.9219h-0.98438z"/>
  </symbol>
  <symbol id="g" overflow="visible">
   <path d="m0.42188-1.1719v-1.8281h0.96875v0.29688 0.625 0.48438c0 0.24219 0.003906 0.41406 0.015625 0.51562 0.007812 0.10547 0.03125 0.18359 0.0625 0.23438 0.039062 0.0625 0.09375 0.11719 0.15625 0.15625 0.0625 0.03125 0.13281 0.046875 0.21875 0.046875 0.19531 0 0.35156-0.078125 0.46875-0.23438 0.11328-0.15625 0.17188-0.36719 0.17188-0.64062v-1.4844h0.95312v3h-0.95312v-0.4375c-0.14844 0.17969-0.30469 0.30859-0.46875 0.39062-0.15625 0.082031-0.33594 0.125-0.53125 0.125-0.34375 0-0.60938-0.10156-0.79688-0.3125-0.17969-0.21875-0.26562-0.53125-0.26562-0.9375z"/>
  </symbol>
  <symbol id="j" overflow="visible">
   <path d="m3.4688-1.8281v1.8281h-0.95312v-1.3906c0-0.25781-0.007813-0.4375-0.015625-0.53125-0.011719-0.10156-0.03125-0.17969-0.0625-0.23438-0.042969-0.0625-0.09375-0.10938-0.15625-0.14062s-0.13672-0.046875-0.21875-0.046875c-0.19922 0-0.35547 0.078125-0.46875 0.23438-0.11719 0.14844-0.17188 0.35938-0.17188 0.64062v1.4688h-0.96875v-4.1719h0.96875v1.6094c0.14453-0.17578 0.29688-0.30469 0.45312-0.39062 0.16406-0.082031 0.34766-0.125 0.54688-0.125 0.34375 0 0.60156 0.10938 0.78125 0.32812 0.17578 0.21094 0.26562 0.51562 0.26562 0.92188z"/>
  </symbol>
  <symbol id="f" overflow="visible">
   <path d="m3.2344-2.5c0.125-0.1875 0.26953-0.32812 0.4375-0.42188 0.16406-0.10156 0.34766-0.15625 0.54688-0.15625 0.34375 0 0.60156 0.10938 0.78125 0.32812 0.1875 0.21094 0.28125 0.51562 0.28125 0.92188v1.8281h-0.96875v-1.5625-0.0625c0.007812-0.03125 0.015625-0.070312 0.015625-0.125 0-0.20703-0.03125-0.35938-0.09375-0.45312s-0.16797-0.14062-0.3125-0.14062c-0.17969 0-0.32031 0.074219-0.42188 0.21875-0.09375 0.14844-0.14844 0.36719-0.15625 0.65625v1.4688h-0.95312v-1.5625c0-0.33203-0.03125-0.54688-0.09375-0.64062-0.054687-0.09375-0.15234-0.14062-0.29688-0.14062-0.1875 0-0.33594 0.078125-0.4375 0.23438-0.09375 0.14844-0.14062 0.35938-0.14062 0.64062v1.4688h-0.96875v-3h0.96875v0.4375c0.11328-0.16406 0.24219-0.28906 0.39062-0.375 0.15625-0.09375 0.32812-0.14062 0.51562-0.14062 0.20703 0 0.39062 0.054687 0.54688 0.15625 0.15625 0.10547 0.27344 0.24609 0.35938 0.42188z"/>
  </symbol>
  <symbol id="t" overflow="visible">
   <path d="m2.9219-0.73438h-1.6094l-0.25 0.73438h-1.0312l1.4688-4h1.2344l1.4844 4h-1.0312zm-1.3438-0.73438h1.0938l-0.54688-1.5938z"/>
  </symbol>
  <symbol id="i" overflow="visible">
   <path d="m3.4688-1.8281v1.8281h-0.95312v-1.3906c0-0.25781-0.007813-0.4375-0.015625-0.53125-0.011719-0.10156-0.03125-0.17969-0.0625-0.23438-0.042969-0.0625-0.09375-0.10938-0.15625-0.14062s-0.13672-0.046875-0.21875-0.046875c-0.19922 0-0.35547 0.078125-0.46875 0.23438-0.11719 0.14844-0.17188 0.35938-0.17188 0.64062v1.4688h-0.96875v-3h0.96875v0.4375c0.14453-0.17578 0.29688-0.30469 0.45312-0.39062 0.16406-0.082031 0.34766-0.125 0.54688-0.125 0.34375 0 0.60156 0.10938 0.78125 0.32812 0.17578 0.21094 0.26562 0.51562 0.26562 0.92188z"/>
  </symbol>
  <symbol id="s" overflow="visible">
   <path d="m2.7969-2.9062v0.73438c-0.19922-0.09375-0.39844-0.16016-0.59375-0.20312-0.1875-0.039062-0.36719-0.0625-0.53125-0.0625-0.1875 0-0.32812 0.027344-0.42188 0.078125-0.085938 0.042969-0.125 0.10938-0.125 0.20312 0 0.074219 0.03125 0.13281 0.09375 0.17188 0.070312 0.042969 0.19531 0.074219 0.375 0.09375l0.17188 0.03125c0.48828 0.0625 0.81641 0.16797 0.98438 0.3125 0.16406 0.13672 0.25 0.35547 0.25 0.65625 0 0.32422-0.12109 0.57031-0.35938 0.73438-0.23047 0.15625-0.57812 0.23438-1.0469 0.23438-0.19922 0-0.40234-0.015625-0.60938-0.046875-0.21094-0.03125-0.42969-0.078125-0.65625-0.14062v-0.73438c0.1875 0.09375 0.37891 0.16797 0.57812 0.21875 0.20703 0.042969 0.41406 0.0625 0.625 0.0625 0.1875 0 0.32812-0.023438 0.42188-0.078125 0.09375-0.050781 0.14062-0.12891 0.14062-0.23438 0-0.082031-0.03125-0.14453-0.09375-0.1875-0.0625-0.039062-0.19531-0.070312-0.39062-0.09375l-0.17188-0.015625c-0.42969-0.0625-0.73047-0.16016-0.90625-0.29688-0.16797-0.14453-0.25-0.36719-0.25-0.67188 0-0.3125 0.10938-0.54688 0.32812-0.70312s0.55078-0.23438 1-0.23438c0.17578 0 0.36328 0.015625 0.5625 0.046875 0.19531 0.03125 0.40625 0.074219 0.625 0.125z"/>
  </symbol>
  <symbol id="r" overflow="visible">
   <path d="m2.4375-4.1719v0.64062h-0.53125c-0.13672 0-0.23047 0.027344-0.28125 0.078125-0.054688 0.042969-0.078125 0.125-0.078125 0.25v0.20312h0.8125v0.6875h-0.8125v2.3125h-0.96875v-2.3125h-0.46875v-0.6875h0.46875v-0.20312c0-0.33203 0.085937-0.57812 0.26562-0.73438 0.1875-0.15625 0.47266-0.23438 0.85938-0.23438z"/>
  </symbol>
  <symbol id="e" overflow="visible">
   <path d="m1.8906-2.3906c-0.21875 0-0.38672 0.078125-0.5 0.23438-0.10547 0.15625-0.15625 0.375-0.15625 0.65625 0 0.29297 0.050781 0.51562 0.15625 0.67188 0.11328 0.14844 0.28125 0.21875 0.5 0.21875 0.20703 0 0.36328-0.070313 0.46875-0.21875 0.11328-0.15625 0.17188-0.37891 0.17188-0.67188 0-0.28125-0.058594-0.5-0.17188-0.65625-0.10547-0.15625-0.26172-0.23438-0.46875-0.23438zm0-0.6875c0.50781 0 0.91016 0.14062 1.2031 0.42188 0.28906 0.28125 0.4375 0.66797 0.4375 1.1562 0 0.49219-0.14844 0.875-0.4375 1.1562-0.29297 0.28125-0.69531 0.42188-1.2031 0.42188-0.52344 0-0.92969-0.14062-1.2188-0.42188-0.29297-0.28125-0.4375-0.66406-0.4375-1.1562 0-0.48828 0.14453-0.875 0.4375-1.1562 0.28906-0.28125 0.69531-0.42188 1.2188-0.42188z"/>
  </symbol>
  <symbol id="q" overflow="visible">
   <path d="m0.5-4h1.1562l1.4531 2.75v-2.75h0.98438v4h-1.1562l-1.4531-2.75v2.75h-0.98438z"/>
  </symbol>
  <symbol id="p" overflow="visible">
   <path d="m0.5-4h1.7188c0.50781 0 0.89844 0.11719 1.1719 0.34375 0.26953 0.21875 0.40625 0.54297 0.40625 0.96875 0 0.41797-0.13672 0.74219-0.40625 0.96875-0.27344 0.21875-0.66406 0.32812-1.1719 0.32812h-0.6875v1.3906h-1.0312zm1.0312 0.75v1.1094h0.57812c0.19531 0 0.34766-0.046875 0.45312-0.14062 0.11328-0.09375 0.17188-0.22656 0.17188-0.40625 0-0.1875-0.058594-0.32812-0.17188-0.42188-0.10547-0.09375-0.25781-0.14062-0.45312-0.14062z"/>
  </symbol>
  <symbol id="o" overflow="visible">
   <path d="m0.45312-3h0.96875v2.9531c0 0.39453-0.10156 0.69531-0.29688 0.90625-0.1875 0.21875-0.46484 0.32812-0.82812 0.32812h-0.48438v-0.64062h0.17188c0.17578 0 0.29688-0.042969 0.35938-0.125 0.070312-0.074219 0.10938-0.23047 0.10938-0.46875zm0-1.1719h0.96875v0.78125h-0.96875z"/>
  </symbol>
  <symbol id="n" overflow="visible">
   <path d="m2.8906-2.9062v0.78125c-0.13672-0.082031-0.27344-0.14453-0.40625-0.1875-0.125-0.050781-0.26172-0.078125-0.40625-0.078125-0.26172 0-0.46875 0.078125-0.625 0.23438-0.14844 0.15625-0.21875 0.375-0.21875 0.65625s0.070313 0.5 0.21875 0.65625c0.15625 0.15625 0.36328 0.23438 0.625 0.23438 0.15625 0 0.30078-0.019531 0.4375-0.0625 0.13281-0.039063 0.25781-0.10938 0.375-0.20312v0.78125c-0.15625 0.0625-0.3125 0.10156-0.46875 0.125-0.14844 0.03125-0.29688 0.046875-0.45312 0.046875-0.54297 0-0.96875-0.13281-1.2812-0.40625-0.30469-0.28125-0.45312-0.67188-0.45312-1.1719 0-0.48828 0.14844-0.875 0.45312-1.1562 0.3125-0.28125 0.73828-0.42188 1.2812-0.42188 0.15625 0 0.30469 0.015625 0.45312 0.046875 0.15625 0.03125 0.3125 0.074219 0.46875 0.125z"/>
  </symbol>
 </defs>
 <g>
  <path d="m455.54 149.92h-252.71l33.316-33.316c3.2891-3.2891 3.2891-8.4375 0-11.727l-39.016-39.016c-1.5352-1.5352-3.6172-2.4102-5.8086-2.4102s-4.2734 0.875-5.8086 2.4102l-114.19 114.09c-3.1797 3.2891-3.1797 8.4375 0 11.727l113.97 114.08c1.5352 1.5352 3.6172 2.4102 5.8086 2.4102s4.2734-0.875 5.8086-2.4102l39.016-39.016c1.5352-1.5352 2.4102-3.6172 2.4102-5.8086 0-2.1914-0.875-4.2734-2.4102-5.8086l-33.316-33.316h252.71c56 0 101.59 45.59 101.59 101.59s-45.59 101.59-101.59 101.59h-53.59-0.10937-141.04c-4.6016 0-8.3281 3.7266-8.3281 8.3281v55.234c0 4.6016 3.7266 8.3281 8.3281 8.3281h194.96c95.672 0 173.37-77.809 173.37-173.37 0-95.777-77.805-173.59-173.37-173.59zm0 330.3h-186.74v-38.684h186.63c65.207 0 118.14-53.043 118.14-118.14 0-65.098-53.043-118.14-118.14-118.14h-272.66c-3.3984 0-6.3555 1.9727-7.6719 5.1523-1.3164 3.0703-0.54688 6.6836 1.7539 8.9844l41.535 41.535-27.176 27.285-102.25-102.36 102.25-102.36 27.289 27.289-41.539 41.531c-2.4102 2.4102-3.0703 5.918-1.7539 8.9844 1.3164 3.0703 4.2734 5.1523 7.6719 5.1523h185.43 0.10938 87.234c86.465 0 156.82 70.355 156.82 156.82 0 86.469-70.465 156.93-156.93 156.93z"/>
  <use x="70" y="576.4375" xlink:href="#u"/>
  <use x="74.019531" y="576.4375" xlink:href="#d"/>
  <use x="76.722656" y="576.4375" xlink:href="#a"/>
  <use x="80.441406" y="576.4375" xlink:href="#c"/>
  <use x="84.136719" y="576.4375" xlink:href="#b"/>
  <use x="86.757813" y="576.4375" xlink:href="#a"/>
  <use x="90.472656" y="576.4375" xlink:href="#h"/>
  <use x="96.304688" y="576.4375" xlink:href="#m"/>
  <use x="100.226563" y="576.4375" xlink:href="#l"/>
  <use x="105.703125" y="576.4375" xlink:href="#k"/>
  <use x="111.15625" y="576.4375" xlink:href="#g"/>
  <use x="115.058594" y="576.4375" xlink:href="#j"/>
  <use x="118.960938" y="576.4375" xlink:href="#c"/>
  <use x="122.65625" y="576.4375" xlink:href="#f"/>
  <use x="128.367188" y="576.4375" xlink:href="#f"/>
  <use x="134.074219" y="576.4375" xlink:href="#c"/>
  <use x="137.773438" y="576.4375" xlink:href="#h"/>
  <use x="143.601562" y="576.4375" xlink:href="#t"/>
  <use x="147.84375" y="576.4375" xlink:href="#g"/>
  <use x="151.746094" y="576.4375" xlink:href="#i"/>
  <use x="155.644531" y="576.4375" xlink:href="#s"/>
  <use x="70" y="581.917969" xlink:href="#r"/>
  <use x="72.382812" y="581.917969" xlink:href="#d"/>
  <use x="75.085938" y="581.917969" xlink:href="#e"/>
  <use x="78.851563" y="581.917969" xlink:href="#f"/>
  <use x="86.46875" y="581.917969" xlink:href="#b"/>
  <use x="89.085938" y="581.917969" xlink:href="#j"/>
  <use x="92.988281" y="581.917969" xlink:href="#a"/>
  <use x="98.613281" y="581.917969" xlink:href="#q"/>
  <use x="103.199219" y="581.917969" xlink:href="#e"/>
  <use x="106.960938" y="581.917969" xlink:href="#g"/>
  <use x="110.863281" y="581.917969" xlink:href="#i"/>
  <use x="116.671875" y="581.917969" xlink:href="#p"/>
  <use x="120.6875" y="581.917969" xlink:href="#d"/>
  <use x="123.390625" y="581.917969" xlink:href="#e"/>
  <use x="127.15625" y="581.917969" xlink:href="#o"/>
  <use x="129.03125" y="581.917969" xlink:href="#a"/>
  <use x="132.75" y="581.917969" xlink:href="#n"/>
  <use x="135.996094" y="581.917969" xlink:href="#b"/>
 </g>
</svg>
